PathFileType	4	(X/Y/Z)	32_2_74_p0_0-248_filt_butterworth.trc
DataRate	CameraRate	NumFrames	NumMarkers	Units	OrigDataRate	OrigDataStartFrame	OrigNumFrames
59.0	59.0	7	27	m	59.0	155	248
Frame#	Time	RHip			RKnee			RAnkle			RBigToe			RSmallToe			RHeel			LHip			LKnee			LAnkle			LBigToe			LSmallToe			LHeel			Neck			Head			Nose			RShoulder			RElbow			RWrist			RThumb			RIndex			RPinky			LShoulder			LElbow			LWrist			LThumb			LIndex			LPinky			
		X1	Y1	Z1	X2	Y2	Z2	X3	Y3	Z3	X4	Y4	Z4	X5	Y5	Z5	X6	Y6	Z6	X7	Y7	Z7	X8	Y8	Z8	X9	Y9	Z9	X10	Y10	Z10	X11	Y11	Z11	X12	Y12	Z12	X13	Y13	Z13	X14	Y14	Z14	X15	Y15	Z15	X16	Y16	Z16	X17	Y17	Z17	X18	Y18	Z18	X19	Y19	Z19	X20	Y20	Z20	X21	Y21	Z21	X22	Y22	Z22	X23	Y23	Z23	X24	Y24	Z24	X25	Y25	Z25	X26	Y26	Z26	X27	Y27	Z27	
155	2.6271186440677967	0.3342846326569509	0.43133688230319	1.0708402015826222	0.3168140504679774	0.4460755050539058	1.4906037803190266	0.3170198782077743	0.4562189339429054	1.8900429524484652	0.3058551941348957	0.33032542208537374	1.9142657227707132	0.37142131709180776	0.3383484712608619	1.9106832234630247	0.2983363320141843	0.5525244282688409	2.0020810671869866	0.1540324274084675	0.4583370043171833	1.0880396643191996	0.15078245195988413	0.4862702456592303	1.5126759437116843	0.15318998653512525	0.5254692508068202	1.9419527714089515	0.1561564629828482	0.3365740905578339	1.9118031018972321	0.10080959586879179	0.39129230268553616	1.933964981861824	0.16381588592081703	0.5497168102691531	1.98836096898237	0.2373096276303187	0.4094358466439324	0.495893610748209	0.21918870156901285	0.3725378772093333	0.26778945969982687	0.22077210866471564	0.31210248681705594	0.3886269178829774	0.40219085918760694	0.3925572841575643	0.5716983543893374	0.4338854174773371	0.350868981983977	0.8052096357991813	0.30757350331099215	0.1610193866514794	0.8064399201603454	0.22578640822320867	0.04428911852735986	0.7488470973847963	0.21400741181532912	0.00833708003078585	0.7871528971812531	0.21737497026709762	0.05745895738305356	0.8517251904229581	0.07980912739593407	0.43207735429277533	0.5868594394659074	0.05424853646924137	0.41363474486710816	0.8118973301973051	0.15011652061557956	0.18581948431633877	0.8319227475919813	0.18286672299682583	0.08397214379939175	0.7919169510171937	0.1779962161366116	0.06544634327006663	0.8122597185132702	0.18127888078210663	0.09279841244925716	0.8577203292779146
156	2.6440677966101696	0.3344423488083732	0.4314815331266296	1.0681533885520582	0.3181923041217997	0.4472635650849521	1.4921245618803798	0.31795935465774333	0.45937472887668357	1.8919477324674148	0.3062466615311814	0.3316639444273289	1.9165576783857987	0.3724804710206456	0.3420416328061294	1.9125110565583887	0.3000817257399544	0.549380901038905	2.000918675794356	0.15293995829823934	0.45818864390412295	1.0866167758947751	0.15159858305686946	0.48649968146009376	1.5118447257968393	0.1531996886546162	0.5253659924415709	1.9418880845937787	0.1574725012439276	0.33752710233631517	1.9123247023933183	0.10235949392214874	0.3861501306221921	1.9309299978020626	0.1637820305465716	0.5496370213166659	1.9882376101183774	0.23735925913001488	0.4094631807067914	0.49586181805313834	0.2184989508642249	0.36605628624770015	0.2677637244300018	0.21820073700412446	0.3178067001424534	0.3893734468727178	0.40053586906111466	0.38880082315829767	0.5701582486410502	0.4320044019313718	0.3475235297389152	0.8057563955460627	0.3020264745294314	0.15215803333155054	0.7956166860790711	0.2250058528550801	0.04712572124287229	0.7328108194827431	0.20970130722610653	0.012139972060069601	0.7662704420965247	0.21326138041604167	0.0560892553554026	0.832553818963598	0.07809914375169931	0.43642362458119494	0.585603015871972	0.0540919821940536	0.4095975651592024	0.8085820639458889	0.1529057423645796	0.18206438183392581	0.8120700516011654	0.18378403193999568	0.08008367817992657	0.7634873588266161	0.1883561789947674	0.0638507148407259	0.7832763864669993	0.2004574092922419	0.08272907417890511	0.8345639764181668
157	2.6610169491525424	0.3347714757535281	0.43085412910181364	1.0665402049905244	0.3185366108527459	0.44732310847714746	1.491996173412933	0.3190810162601576	0.46364200407976164	1.8950233524593614	0.3064081747300626	0.33187994553741473	1.9177780505372386	0.3727442312597732	0.3448009331134006	1.913190514698841	0.3014976630768656	0.5479501432719579	2.003632075425238	0.15228400058232608	0.4575769275825654	1.0847474206921084	0.1516334739403304	0.4865023410834039	1.5093769701814115	0.15322660718934183	0.5252642870585443	1.9417766784382946	0.1592135162876069	0.33881729551426687	1.9130332215435564	0.10354361595794603	0.3822077817515896	1.9286866853719802	0.16374608192565715	0.5495399097934032	1.9881562902417163	0.23742309888475369	0.4094106660271306	0.49592429466491517	0.2189087267369422	0.3620866224977674	0.2675257240388113	0.216413617647077	0.3227389530549476	0.3896305584424972	0.3990870426690065	0.3854412748549483	0.5687981431024657	0.4294183562308884	0.34684248568383413	0.8080224841982537	0.2971538145420831	0.13769989242823863	0.7830325843401129	0.22531069549652977	0.04545493490046647	0.722803598714437	0.2098663731200746	0.014181040804821115	0.7431752600877616	0.2160272671222159	0.04553321579460524	0.812700218029024	0.07676554620796833	0.4397247073219122	0.5845375460170695	0.05313152729388382	0.40682493988805135	0.8063227744239315	0.15430206238824112	0.17381225529210975	0.7929677130129543	0.18321042774000465	0.07283847999574836	0.7416057139322703	0.19576661214110522	0.050497691746149424	0.7575233684623603	0.21045316689841392	0.06785498492938244	0.8175178041249762
158	2.6779661016949152	0.3347970727249877	0.4304347519384711	1.0674061965296264	0.3182409821270881	0.44685962602210555	1.4906251495909457	0.3197073721483177	0.467008355134728	1.898339037201153	0.30690864118590955	0.3304252607708065	1.9175256172367041	0.372628381179478	0.3458769064650491	1.9131618867168632	0.30212947268725576	0.5507294326072197	2.009924046148021	0.15129752867716817	0.4568755084785936	1.081741706771523	0.1512990810099226	0.48632582605731517	1.5067736230074613	0.15322752291414582	0.5252054535708537	1.9418081893628356	0.16052152724178365	0.33977640086329197	1.9136022925344796	0.1040197067178931	0.38052106824676024	1.9272221836326577	0.16372811303583634	0.5495130552798261	1.9881497189879085	0.23742030786382762	0.4093242329817192	0.49593773906578553	0.21960161578205395	0.36344666582654006	0.2669615041756581	0.2153890432727688	0.32578964368031244	0.3891550031179476	0.39794079857302944	0.38359524009273455	0.5680782456855156	0.42532103641877306	0.3488958306577009	0.8128004272936916	0.2922100746242392	0.12275026671542288	0.7706648913541502	0.22636247992136488	0.036219172090924324	0.7123919207271178	0.21361594975206316	0.010607373444166764	0.7235724561566406	0.22226393515800044	0.029216890386604848	0.7934828037626374	0.07615107660309964	0.44113383060757505	0.5841432606217751	0.05205473744611146	0.4029299697823324	0.8047740945582892	0.15513109232801456	0.1641747978308014	0.7781639664965116	0.1829212610297814	0.06556816325588159	0.7254282991000893	0.20074509047741823	0.03126030369411085	0.7359735398916529	0.2160931928970689	0.05247021722232983	0.8027796339066091
159	2.694915254237288	0.33393251865128315	0.43038712813813773	1.0699489166273652	0.31778323435520306	0.4463249483633433	1.4888220634354663	0.31965910926584173	0.4685087734718404	1.9009181428153206	0.3080330437096402	0.32655439379735407	1.9150959757361545	0.37249071973358017	0.3458478820728041	1.9129176876094078	0.30153550006998503	0.5572619212467776	2.017073739996816	0.14983237147817283	0.4561032219843416	1.0781521451051477	0.15096046789686984	0.486062341628986	1.5046456269462838	0.15311244623379316	0.5252019164790888	1.9423207979910155	0.1610104359385966	0.34009584510381324	1.91387603381392	0.10404615887175228	0.38030485862572144	1.9266524572910793	0.16373408496615482	0.5496362595035338	1.9882260278872688	0.23739081308885315	0.4092226391017322	0.4959162548148586	0.2204522540798346	0.3698666757840551	0.2656597771751544	0.2150412539541119	0.32687484053765303	0.3882267572286025	0.39728550780370764	0.38284549895528036	0.5678724402364083	0.42006790863144594	0.3540104980616719	0.8196776380178918	0.2877490181146892	0.11289687243007662	0.7604282194977446	0.22771722040977355	0.026763645622701396	0.6988843982421084	0.21849082149898966	0.0040119463494578175	0.7085090367505313	0.228005715800295	0.016528923822356423	0.7747480242166704	0.07615997244854229	0.4410303625600005	0.5839867863343011	0.05257064287603516	0.39527889996909416	0.8026203173102153	0.1556206332300037	0.1538179841376499	0.7674663718445585	0.1830256191553788	0.06160747157899068	0.7120061122021425	0.2030429492989605	0.014685912937013905	0.7187954039642032	0.2209128783901259	0.04025706865317146	0.7857919939537956
160	2.711864406779661	0.331756065367922	0.4305439065262856	1.0722717117390308	0.31747689973289034	0.445976293997854	1.487469535944979	0.31935031784368456	0.4687450208447714	1.9023088682581946	0.309408272759707	0.32129073552841353	1.9110183572338808	0.3724479999244094	0.34548965000745097	1.9126652458211248	0.3000829778125238	0.5643175760423782	2.0226944338539816	0.14875493161610456	0.4554293859242941	1.0753984694547762	0.1508223160835935	0.48579052131143	1.5030058085823779	0.152816602041916	0.5252619305278327	1.9435497930766812	0.16097949613875584	0.33999234773349996	1.9139454273023706	0.1039666930736095	0.3804579827032435	1.92666472243307	0.16375086515438517	0.549901598083148	1.988359879543849	0.23737523917219824	0.4091594789484043	0.495881002158316	0.22166733851331286	0.3773497750409374	0.2635861789395126	0.2150607092199456	0.3268839701656719	0.3874686080318491	0.3971407416877336	0.38248448051113515	0.5678913767909506	0.4146769830919027	0.36023006722787526	0.8267588219708768	0.2842675581490721	0.109141759889885	0.7530589462257536	0.2294159486999387	0.022899111270673803	0.6835562085040954	0.22289208762672072	-0.0011865997242279224	0.6947768865573548	0.2311532331332048	0.010640015572442285	0.7555862167056211	0.07679124906824167	0.4394713277801916	0.5835945910572332	0.05594429419410202	0.3840266909288062	0.7993665161266175	0.15680467169035703	0.1405853675670743	0.7586203705942396	0.18287304002344046	0.062132118978549734	0.6995552919837772	0.20276829422352483	0.006283253824755783	0.7045932735710833	0.22483687637738342	0.031200928842577372	0.765818175701867
161	2.7288135593220337	0.32888021958653463	0.43072668505363365	1.0735512199767168	0.3174310712038011	0.4458603395344468	1.486882668385651	0.3191627055699432	0.4685656809178742	1.9026750698563422	0.31038371067728143	0.31719656625279125	1.90750391755125	0.37245016770291245	0.34519289901832595	1.9126055055731652	0.29878452827288315	0.568753661943733	2.025767869218817	0.14870493570796733	0.4549270917412468	1.0742087616644003	0.15090148452890198	0.4855199839399894	1.5019727291735818	0.15242608370213942	0.5254110393396509	1.945157422055361	0.16083428412250111	0.33978979213998417	1.9139513299994952	0.10392361559532637	0.38050071296399407	1.926819906917324	0.16375710960351703	0.550177525771911	1.9884873473785607	0.23739012744286225	0.40916727322734103	0.49583209961087227	0.222877612626539	0.38205849448799983	0.26134955563968065	0.21516195698762441	0.326646553923449	0.3870970955683118	0.39720035357424255	0.38228621071052804	0.5679743221515564	0.40977227016984724	0.36370943440349707	0.8317323898803253	0.281991883860051	0.10802854678292631	0.7478459120558231	0.23136978325463636	0.023582497028879826	0.668513035190411	0.2262557493874222	-0.004505131083373608	0.679248283897222	0.23199137618422777	0.007795898556643926	0.736665619947279	0.078110920754412	0.4361918329534863	0.583056802323266	0.06123590789208222	0.3703579104542661	0.7960256932393769	0.16013262088319294	0.12536485300594125	0.7503510042016888	0.18280949154426296	0.0663404656765819	0.6879683253966922	0.20159030031218034	0.005746188822519057	0.6903664816066224	0.22736936919889433	0.02326003455067058	0.7454942114344614
